<svg width="310" height="105" viewBox="0 0 310 105" fill="none" xmlns="http://www.w3.org/2000/svg">
<path fill-rule="evenodd" clip-rule="evenodd" d="M37.8579 71.1421C34.1071 67.3914 32 62.3043 32 57H72C72 62.3043 69.8929 67.3914 66.1421 71.1421C62.3914 74.8929 57.3043 77 52 77C46.6957 77 41.6086 74.8929 37.8579 71.1421ZM41.1523 57.0001C46.5 59.5001 49 62.5001 51.9018 68.0001C54.9373 62.6946 57.5 59.5001 62.8398 57.0001H41.1523Z" fill="#D3D3D3"/>
<mask id="path-2-inside-1_5896_24413" fill="white">
<path d="M47.9113 17.4515C47.783 16.4378 46.8561 15.7154 45.8501 15.8941C37.2323 17.4252 29.4133 21.9684 23.8099 28.7443C18.2066 35.5203 15.2124 44.0533 15.3267 52.8053C15.34 53.827 16.2237 54.6018 17.2433 54.5374C18.263 54.473 19.0321 53.5937 19.0244 52.5721C18.9659 44.7601 21.6578 37.1529 26.6613 31.1022C31.6648 25.0516 38.6313 20.9792 46.3153 19.5699C47.3203 19.3856 48.0395 18.4651 47.9113 17.4515Z"/>
</mask>
<path d="M47.9113 17.4515C47.783 16.4378 46.8561 15.7154 45.8501 15.8941C37.2323 17.4252 29.4133 21.9684 23.8099 28.7443C18.2066 35.5203 15.2124 44.0533 15.3267 52.8053C15.34 53.827 16.2237 54.6018 17.2433 54.5374C18.263 54.473 19.0321 53.5937 19.0244 52.5721C18.9659 44.7601 21.6578 37.1529 26.6613 31.1022C31.6648 25.0516 38.6313 20.9792 46.3153 19.5699C47.3203 19.3856 48.0395 18.4651 47.9113 17.4515Z" stroke="white" stroke-width="8" stroke-linejoin="round" mask="url(#path-2-inside-1_5896_24413)"/>
<mask id="path-3-inside-2_5896_24413" fill="white">
<path d="M77.4238 76.93C78.1534 77.6453 78.168 78.8204 77.4172 79.5133C73.7339 82.9127 69.3931 85.5328 64.6553 87.2077C59.3354 89.0884 53.6557 89.7274 48.0508 89.0758C42.4459 88.4242 37.0643 86.4993 32.3176 83.4484C28.0904 80.7314 24.4665 77.1853 21.6612 73.0316C21.0894 72.1849 21.3732 71.0445 22.2474 70.5157C23.1217 69.9869 24.2548 70.2703 24.8314 71.1138C27.3414 74.7862 30.5657 77.924 34.3182 80.3359C38.5902 83.0817 43.4337 84.8141 48.4781 85.4005C53.5225 85.987 58.6342 85.4119 63.4221 83.7193C67.6279 82.2325 71.486 79.9181 74.7715 76.9194C75.5262 76.2306 76.6941 76.2148 77.4238 76.93Z"/>
</mask>
<path d="M77.4238 76.93C78.1534 77.6453 78.168 78.8204 77.4172 79.5133C73.7339 82.9127 69.3931 85.5328 64.6553 87.2077C59.3354 89.0884 53.6557 89.7274 48.0508 89.0758C42.4459 88.4242 37.0643 86.4993 32.3176 83.4484C28.0904 80.7314 24.4665 77.1853 21.6612 73.0316C21.0894 72.1849 21.3732 71.0445 22.2474 70.5157C23.1217 69.9869 24.2548 70.2703 24.8314 71.1138C27.3414 74.7862 30.5657 77.924 34.3182 80.3359C38.5902 83.0817 43.4337 84.8141 48.4781 85.4005C53.5225 85.987 58.6342 85.4119 63.4221 83.7193C67.6279 82.2325 71.486 79.9181 74.7715 76.9194C75.5262 76.2306 76.6941 76.2148 77.4238 76.93Z" stroke="white" stroke-width="8" mask="url(#path-3-inside-2_5896_24413)"/>
<mask id="path-4-inside-3_5896_24413" fill="white">
<path d="M64.6243 19.3959C64.9819 18.4388 66.0499 17.9484 66.988 18.3533C75.0241 21.8221 81.5911 28.0391 85.489 35.9206C89.387 43.8021 90.3421 52.7946 88.2214 61.2865C87.9739 62.2778 86.936 62.829 85.9583 62.5323C84.9806 62.2355 84.434 61.2032 84.676 60.2105C86.5266 52.6207 85.6531 44.5986 82.1725 37.5609C78.6918 30.5231 72.8465 24.96 65.6913 21.8242C64.7555 21.414 64.2668 20.353 64.6243 19.3959Z"/>
</mask>
<path d="M64.6243 19.3959C64.9819 18.4388 66.0499 17.9484 66.988 18.3533C75.0241 21.8221 81.5911 28.0391 85.489 35.9206C89.387 43.8021 90.3421 52.7946 88.2214 61.2865C87.9739 62.2778 86.936 62.829 85.9583 62.5323C84.9806 62.2355 84.434 61.2032 84.676 60.2105C86.5266 52.6207 85.6531 44.5986 82.1725 37.5609C78.6918 30.5231 72.8465 24.96 65.6913 21.8242C64.7555 21.414 64.2668 20.353 64.6243 19.3959Z" stroke="url(#paint0_linear_5896_24413)" stroke-width="8" mask="url(#path-4-inside-3_5896_24413)"/>
<path fill-rule="evenodd" clip-rule="evenodd" d="M48.1082 31.4732C49.3472 27.2732 55.2992 27.2732 56.5382 31.4732L56.8382 32.4932C57.0234 33.122 57.3469 33.7014 57.7851 34.1889C58.2233 34.6764 58.765 35.0596 59.3706 35.3104C59.9761 35.5613 60.6302 35.6734 61.2847 35.6386C61.9393 35.6038 62.5777 35.4229 63.1532 35.1092L64.0862 34.6022C67.9322 32.5052 72.1412 36.7142 70.0472 40.5632L69.5372 41.4932C69.2236 42.0688 69.0427 42.7072 69.0079 43.3618C68.9731 44.0163 69.0852 44.6704 69.336 45.2759C69.5869 45.8815 69.9701 46.4232 70.4576 46.8614C70.9451 47.2996 71.5245 47.6231 72.1532 47.8082L73.1732 48.1082C75.3675 48.7555 76.4153 50.6892 76.3169 52.5651C73.9588 50.307 67.7403 51.7793 60.7033 54.9635C60.9706 54.116 61.1102 53.2253 61.1102 52.3202C61.1102 49.9898 60.1845 47.7548 58.5366 46.1069C56.8887 44.459 54.6537 43.5332 52.3232 43.5332C49.992 43.5332 47.7562 44.4593 46.1078 46.1078C44.4593 47.7562 43.5332 49.992 43.5332 52.3232C43.5332 53.3579 43.7156 54.3737 44.0626 55.3277C35.5678 51.4465 29.69 49.816 28.5324 53.6929C27.8518 51.5303 28.8321 48.8874 31.4732 48.1082L32.4932 47.8082C35.1782 47.0162 36.4472 43.9532 35.1092 41.4932L34.6022 40.5602C32.5052 36.7142 36.7142 32.5052 40.5632 34.5992L41.4932 35.1092C42.0688 35.4229 42.7072 35.6038 43.3618 35.6386C44.0163 35.6734 44.6704 35.5613 45.2759 35.3104C45.8815 35.0596 46.4232 34.6764 46.8614 34.1889C47.2996 33.7014 47.6231 33.122 47.8082 32.4932L48.1082 31.4732ZM34.0539 66.5184C34.2439 69.0231 36.6721 71.045 39.2734 70.519C37.2933 69.3528 35.5425 67.9864 34.0539 66.5184ZM48.3825 73.8889C49.8933 77.0325 54.4074 77.1315 56.1073 74.1858C55.2036 74.2761 54.2753 74.3232 53.3232 74.3232C51.61 74.3232 49.9604 74.1705 48.3825 73.8889ZM67.0909 70.509C68.2909 70.2487 69.3324 69.4764 69.9631 68.4446C69.0784 69.1813 68.1199 69.8747 67.0909 70.509Z" fill="white"/>
<path d="M32.3232 56.3232C32.3232 61.6276 34.4304 66.7147 38.1811 70.4654C41.9318 74.2161 47.0189 76.3232 52.3232 76.3232C57.6276 76.3232 62.7147 74.2161 66.4654 70.4654C70.2161 66.7147 72.3232 61.6276 72.3232 56.3232" stroke="white" stroke-width="4" stroke-linecap="round" stroke-linejoin="round"/>
<path d="M52.3232 76.3232C52.3232 71.0189 54.4304 65.9318 58.1811 62.1811C61.9318 58.4304 67.0189 56.3232 72.3232 56.3232M32.3232 56.3232C34.9497 56.3232 37.5504 56.8406 39.9769 57.8457C42.4034 58.8507 44.6082 60.3239 46.4654 62.1811C48.3225 64.0383 49.7957 66.2431 50.8008 68.6696C51.8059 71.0961 52.3232 73.6968 52.3232 76.3232" fill="#EEEEEE"/>
<path d="M72.3232 56.3232C67.0189 56.3232 61.9318 58.4304 58.1811 62.1811C54.4304 65.9318 52.3232 71.0189 52.3232 76.3232C52.3232 73.6968 51.8059 71.0961 50.8008 68.6696C49.7957 66.2431 48.3225 64.0383 46.4654 62.1811C44.6082 60.3239 42.4034 58.8507 39.9769 57.8457C37.5504 56.8406 34.9497 56.3232 32.3232 56.3232" stroke="white" stroke-width="4" stroke-linecap="round" stroke-linejoin="round"/>
<circle cx="52.3232" cy="17.3232" r="5" stroke="white" stroke-width="4"/>
<circle cx="20.3232" cy="66.3232" r="5" stroke="white" stroke-width="4"/>
<circle cx="83.3232" cy="66.3232" r="5" stroke="white" stroke-width="4"/>
<path d="M114.342 35.2152H114.886L118.502 43.1832C118.694 43.5672 118.758 43.8232 119.206 43.8232H121.126C121.574 43.8232 121.862 43.5672 121.702 43.1832L117.862 34.7992C120.614 34.0312 121.606 32.2712 121.606 30.3192V26.9912C121.606 24.3672 119.846 22.0632 114.342 22.0632H107.846C107.43 22.0632 107.27 22.2552 107.27 22.7032V43.1832C107.27 43.6312 107.43 43.8232 107.846 43.8232H109.798C110.246 43.8232 110.374 43.6312 110.374 43.1832V35.2152H114.342ZM114.342 24.7192C117.222 24.7192 118.502 25.7752 118.502 27.5032V29.7752C118.502 31.5352 117.222 32.5592 114.342 32.5592H110.374V24.7192H114.342ZM129.214 22.7032C129.214 22.2552 129.054 22.0632 128.638 22.0632H126.686C126.27 22.0632 126.078 22.2552 126.078 22.7032V39.1512C126.078 41.7752 127.87 44.0792 133.342 44.0792C138.846 44.0792 140.638 41.7752 140.638 39.1512V22.7032C140.638 22.2552 140.51 22.0632 140.062 22.0632H138.11C137.694 22.0632 137.534 22.2552 137.534 22.7032V38.6392C137.534 40.3672 136.222 41.4232 133.342 41.4232C130.494 41.4232 129.214 40.3672 129.214 38.6392V22.7032ZM150.356 22.0632C149.94 22.0632 149.716 22.2552 149.588 22.6712L143.38 43.2152C143.252 43.5992 143.412 43.8232 143.828 43.8232H145.684C146.1 43.8232 146.292 43.5992 146.388 43.2152L147.86 38.2552H154.612L156.116 43.2152C156.212 43.5992 156.404 43.8232 156.82 43.8232H158.836C159.284 43.8232 159.444 43.5992 159.316 43.2152L153.108 22.6712C152.98 22.2552 152.756 22.0632 152.34 22.0632H150.356ZM153.94 35.7592H148.564L150.388 29.8712C150.804 28.4952 151.22 25.5512 151.284 25.2632C151.316 25.6152 151.764 28.7512 152.148 29.9352L153.94 35.7592ZM177.111 22.6712C177.111 22.2552 176.983 22.0632 176.535 22.0632H174.775C174.359 22.0632 174.167 22.2552 174.167 22.6712V37.8392C174.167 37.8392 173.623 36.5592 173.175 35.7912L165.463 22.3192C165.367 22.1592 165.207 22.0632 164.951 22.0632H163.159C162.743 22.0632 162.583 22.2552 162.583 22.6712V43.2152C162.583 43.6312 162.743 43.8232 163.159 43.8232H164.951C165.367 43.8232 165.527 43.6312 165.527 43.2152V28.0472C165.591 28.1752 165.975 29.1672 166.679 30.3512L174.199 43.5352C174.327 43.7272 174.455 43.8232 174.775 43.8232H176.535C176.983 43.8232 177.111 43.6312 177.111 43.2152V22.6712ZM189.308 32.9432C188.892 32.9432 188.7 33.1032 188.7 33.5192V34.9912C188.7 35.4392 188.892 35.5992 189.308 35.5992H193.116V38.6712C193.116 40.3992 191.964 41.4232 189.116 41.4232C186.236 41.4232 185.148 40.3672 185.148 38.6392V27.2472C185.148 25.5192 186.236 24.4632 189.116 24.4632C191.996 24.4632 193.116 25.5192 193.116 27.2472V28.1432C193.116 28.5592 193.276 28.7512 193.724 28.7512H195.58C195.996 28.7512 196.156 28.5592 196.156 28.1432V26.7352C196.156 24.1112 194.588 21.8072 189.084 21.8072C183.58 21.8072 182.012 24.1112 182.012 26.7352V39.1512C182.012 41.7752 183.58 44.0792 189.084 44.0792C194.588 44.0792 196.156 41.7752 196.156 39.1512V33.5192C196.156 33.1032 195.964 32.9432 195.548 32.9432H189.308Z" fill="white"/>
<path d="M124.491 83.8232C125.436 83.8232 125.841 83.4632 125.841 82.5182V79.0082C125.841 78.0632 125.436 77.7482 124.491 77.7482H114.771V70.9982H123.321C124.266 70.9982 124.671 70.6382 124.671 69.6932V66.4082C124.671 65.4632 124.266 65.1482 123.321 65.1482H114.771V59.2982H124.041C124.986 59.2982 125.391 58.9382 125.391 57.9932V54.4832C125.391 53.5382 124.986 53.2232 124.041 53.2232H108.651C107.706 53.2232 107.346 53.6282 107.346 54.5732V82.4732C107.346 83.4182 107.706 83.8232 108.651 83.8232H124.491ZM153.105 54.5732C153.105 53.6282 152.79 53.2232 151.845 53.2232H147.435C146.49 53.2232 146.13 53.6282 146.13 54.5732V69.8732C145.68 68.7932 145.095 67.4432 144.555 66.4982L136.95 53.7632C136.77 53.4032 136.41 53.2232 135.825 53.2232H131.415C130.47 53.2232 130.11 53.6282 130.11 54.5732V82.4732C130.11 83.4182 130.47 83.8232 131.415 83.8232H135.825C136.77 83.8232 137.085 83.4182 137.085 82.4732V67.1732C137.58 68.4332 138.255 70.0082 139.02 71.2232L146.22 83.1932C146.49 83.6432 146.76 83.8232 147.435 83.8232H151.845C152.79 83.8232 153.105 83.4182 153.105 82.4732V54.5732ZM169.299 67.1732C168.354 67.1732 167.949 67.4882 167.949 68.4332V71.9432C167.949 72.8882 168.354 73.2482 169.299 73.2482H172.989V75.1832C172.989 77.2532 171.414 78.1082 169.209 78.1082C167.004 78.1082 165.474 77.2532 165.474 75.1832V61.8632C165.474 59.7932 167.004 58.9382 169.209 58.9382C171.414 58.9382 172.989 59.7932 172.989 61.8632V62.1782C172.989 63.1232 173.349 63.5282 174.294 63.5282H178.929C179.874 63.5282 180.189 63.1232 180.189 62.1782V60.5582C180.189 56.6882 177.579 52.8632 169.119 52.8632C160.659 52.8632 158.049 56.6882 158.049 60.5582V76.4882C158.049 80.3582 160.659 84.1832 169.119 84.1832C177.579 84.1832 180.189 80.3582 180.189 76.4882V68.4332C180.189 67.4882 179.784 67.1732 178.839 67.1732H169.299ZM192.335 54.5732C192.335 53.6282 192.02 53.2232 191.075 53.2232H186.215C185.27 53.2232 184.91 53.6282 184.91 54.5732V82.4732C184.91 83.4182 185.27 83.8232 186.215 83.8232H191.075C192.02 83.8232 192.335 83.4182 192.335 82.4732V54.5732ZM220.737 54.5732C220.737 53.6282 220.422 53.2232 219.477 53.2232H215.067C214.122 53.2232 213.762 53.6282 213.762 54.5732V69.8732C213.312 68.7932 212.727 67.4432 212.187 66.4982L204.582 53.7632C204.402 53.4032 204.042 53.2232 203.457 53.2232H199.047C198.102 53.2232 197.742 53.6282 197.742 54.5732V82.4732C197.742 83.4182 198.102 83.8232 199.047 83.8232H203.457C204.402 83.8232 204.717 83.4182 204.717 82.4732V67.1732C205.212 68.4332 205.887 70.0082 206.652 71.2232L213.852 83.1932C214.122 83.6432 214.392 83.8232 215.067 83.8232H219.477C220.422 83.8232 220.737 83.4182 220.737 82.4732V54.5732ZM243.276 83.8232C244.221 83.8232 244.626 83.4632 244.626 82.5182V79.0082C244.626 78.0632 244.221 77.7482 243.276 77.7482H233.556V70.9982H242.106C243.051 70.9982 243.456 70.6382 243.456 69.6932V66.4082C243.456 65.4632 243.051 65.1482 242.106 65.1482H233.556V59.2982H242.826C243.771 59.2982 244.176 58.9382 244.176 57.9932V54.4832C244.176 53.5382 243.771 53.2232 242.826 53.2232H227.436C226.491 53.2232 226.131 53.6282 226.131 54.5732V82.4732C226.131 83.4182 226.491 83.8232 227.436 83.8232H243.276ZM266.039 83.8232C266.984 83.8232 267.389 83.4632 267.389 82.5182V79.0082C267.389 78.0632 266.984 77.7482 266.039 77.7482H256.319V70.9982H264.869C265.814 70.9982 266.219 70.6382 266.219 69.6932V66.4082C266.219 65.4632 265.814 65.1482 264.869 65.1482H256.319V59.2982H265.589C266.534 59.2982 266.939 58.9382 266.939 57.9932V54.4832C266.939 53.5382 266.534 53.2232 265.589 53.2232H250.199C249.254 53.2232 248.894 53.6282 248.894 54.5732V82.4732C248.894 83.4182 249.254 83.8232 250.199 83.8232H266.039ZM294.113 64.8332V60.9182C294.113 57.0482 291.143 53.2232 282.683 53.2232H272.963C272.018 53.2232 271.658 53.6282 271.658 54.5732V82.4732C271.658 83.4182 272.018 83.8232 272.963 83.8232H277.823C278.768 83.8232 279.083 83.4182 279.083 82.4732V72.5282H282.458L286.418 82.4732C286.688 83.1032 286.868 83.8232 287.723 83.8232H292.583C293.573 83.8232 294.158 83.2832 293.843 82.4732L289.433 71.4032C292.808 69.9632 294.113 67.3982 294.113 64.8332ZM282.683 59.2982C284.888 59.2982 286.778 60.1532 286.778 62.2232V63.5282C286.778 65.5982 284.888 66.4532 282.683 66.4532H279.083V59.2982H282.683Z" fill="white"/>
<defs>
<linearGradient id="paint0_linear_5896_24413" x1="102" y1="77.9999" x2="57.0002" y2="18.4999" gradientUnits="userSpaceOnUse">
<stop stop-color="white"/>
<stop offset="1" stop-color="white"/>
</linearGradient>
</defs>
</svg>
