<svg width="500" height="500" xmlns="http://www.w3.org/2000/svg">
  <defs>
    <clipPath id="myClip">
      <path stroke="cyan" stroke-width="4" fill="none" d="
        M 210 455
        C -50 220, -50 315, 140 80
        C 180 30, 245 40, 480 40
        C 510 40, 530 80, 530 80
        L 585 160
        C 585 160, 600 180, 600 200
        L 600 430
        C 600 465, 565 465, 565 465
        L 285 465
        C 240 465, 220 465, 210 455, 
        Z"
      />
      <!-- <circle cx="600" cy="465" r="6" fill="yellow"/>
      <circle cx="600" cy="500" r="6" fill="yellow"/>
      <circle cx="565" cy="500" r="6" fill="yellow"/> -->
    </clipPath>
    <!-- <filter id="dropShadow" x="-20%" y="-20%" width="140%" height="140%">
      <feDropShadow dx="4" dy="4" stdDeviation="4" flood-color="#ffffff" flood-opacity="0.7"/>
    </filter> -->
  </defs>
  <image
    clip-path="url(#myClip)"
    href="exl.webp"
    width="100%"
    height="500"
  />
</svg>